<?xml version="1.0" encoding="UTF-8" standalone="no" ?>
<!DOCTYPE svg PUBLIC "-//W3C//DTD SVG 1.1//EN" "http://www.w3.org/Graphics/SVG/1.1/DTD/svg11.dtd">
<svg xmlns="http://www.w3.org/2000/svg" xmlns:xlink="http://www.w3.org/1999/xlink" version="1.1" width="1080" height="1080" viewBox="0 0 1080 1080" xml:space="preserve">
<desc>Created with Fabric.js 5.2.4</desc>
<defs>
</defs>
<g transform="matrix(1 0 0 1 540 540)" id="5e5b9128-73c8-4e20-970d-b625a6525d10"  >
<rect style="stroke: none; stroke-width: 1; stroke-dasharray: none; stroke-linecap: butt; stroke-dashoffset: 0; stroke-linejoin: miter; stroke-miterlimit: 4; fill: rgb(255,255,255); fill-rule: nonzero; opacity: 1; visibility: hidden;" vector-effect="non-scaling-stroke"  x="-540" y="-540" rx="0" ry="0" width="1080" height="1080" />
</g>
<g transform="matrix(1 0 0 1 540 540)" id="8a584ed0-5905-48fe-a09c-889365573717"  >
</g>
<g transform="matrix(2.11 0 0 2.11 540 540)"  >
<g style=""   >
		<g transform="matrix(1 0 0 1 21.43 33.22)" id="Calque_1"  >
<path style="stroke: none; stroke-width: 0; stroke-dasharray: none; stroke-linecap: butt; stroke-dashoffset: 0; stroke-linejoin: miter; stroke-miterlimit: 4; fill: rgb(255,255,255); fill-rule: nonzero; opacity: 1;" vector-effect="non-scaling-stroke"  transform=" translate(-277.43, -170.07)" d="M 363.7 171.6 C 357.8 164.6 352 157.7 345.9 150.5 C 340.79999999999995 155.3 335.9 160 330.9 164.7 C 329.59999999999997 166 328.09999999999997 167.1 326.79999999999995 168.39999999999998 C 323.9 171.29999999999998 320.99999999999994 174.29999999999998 318.19999999999993 177.29999999999998 C 314.49999999999994 181.2 310.8999999999999 185.2 307.29999999999995 189.2 C 304.69999999999993 192 301.99999999999994 194.79999999999998 299.4 197.6 C 298.5 198.6 297.4 198.9 296.2 198.7 C 294.8 198.5 293.4 198.2 292 198.1 C 291.5 198.1 291 198.2 290.6 198.29999999999998 C 289.90000000000003 197.49999999999997 289.3 196.6 288.6 195.7 C 288.6 195.7 288.40000000000003 195.89999999999998 288.3 195.89999999999998 C 288.6 196.7 288.90000000000003 197.59999999999997 289.2 198.39999999999998 C 286.4 199.29999999999998 283.8 199.49999999999997 280.9 199.2 C 277.7 198.79999999999998 274.5 198.79999999999998 271.29999999999995 198.5 C 270.9 198.5 270.49999999999994 198 270.19999999999993 197.9 C 269.0999999999999 198.1 268.0999999999999 198.3 267.19999999999993 198.3 L 249.39999999999992 198.3 C 248.49999999999991 198.3 247.69999999999993 197.9 246.5999999999999 198.70000000000002 C 245.7999999999999 199.20000000000002 244.0999999999999 198.4 242.39999999999992 198.20000000000002 C 242.39999999999992 198.20000000000002 242.0999999999999 198.60000000000002 241.69999999999993 199.10000000000002 C 240.89999999999992 198.50000000000003 240.19999999999993 198.00000000000003 239.49999999999994 197.50000000000003 C 239.39999999999995 197.60000000000002 239.29999999999995 197.80000000000004 239.19999999999993 197.90000000000003 L 240.19999999999993 198.90000000000003 C 240.19999999999993 199.10000000000002 239.99999999999994 199.20000000000005 239.99999999999994 199.20000000000005 C 237.29999999999995 199.20000000000005 234.59999999999994 199.30000000000004 231.89999999999995 199.20000000000005 C 231.49999999999994 199.20000000000005 231.19999999999996 198.70000000000005 230.89999999999995 198.40000000000003 C 230.59999999999994 198.10000000000002 230.29999999999995 197.80000000000004 229.69999999999996 197.40000000000003 C 229.69999999999996 198.20000000000005 229.59999999999997 198.60000000000002 229.49999999999997 199.20000000000005 C 228.39999999999998 197.20000000000005 224.99999999999997 196.70000000000005 221.89999999999998 197.70000000000005 L 221.89999999999998 197.20000000000005 C 220.99999999999997 197.10000000000005 220.09999999999997 197.10000000000005 219.29999999999998 196.80000000000004 C 216.99999999999997 195.90000000000003 215.1 197.00000000000003 213.1 197.70000000000005 C 212.79999999999998 197.80000000000004 212.29999999999998 197.50000000000006 211.9 197.30000000000004 C 210.8 197.00000000000003 209.8 196.50000000000003 208.70000000000002 196.40000000000003 C 202.9 196.20000000000005 197.20000000000002 196.10000000000002 191.4 195.90000000000003 C 184.8 195.60000000000002 178.1 195.30000000000004 171.3 194.90000000000003 C 171.10000000000002 194.60000000000002 170.8 194.10000000000002 170.4 193.50000000000003 C 169.1 195.90000000000003 168 196.20000000000002 164.9 195.30000000000004 C 163.8 195.00000000000003 162.70000000000002 194.80000000000004 161.6 194.80000000000004 C 159.7 194.80000000000004 158.79999999999998 193.60000000000005 160.1 192.40000000000003 C 162.6 190.20000000000005 163.2 186.30000000000004 166.6 184.90000000000003 C 167.1 184.70000000000005 167.4 184.00000000000003 167.7 183.50000000000003 C 169.7 179.60000000000002 172 176.00000000000003 175.2 173.00000000000003 C 180 168.60000000000002 183.1 163.10000000000002 186.6 157.70000000000002 C 188.29999999999998 155.10000000000002 190 152.50000000000003 192.5 150.3 C 196 147.10000000000002 199.3 143.60000000000002 201.8 139.4 C 202.5 138.20000000000002 204.8 137.8 206.5 137.20000000000002 C 207.4 136.9 208.3 136.60000000000002 209.3 136.60000000000002 C 210.3 136.60000000000002 211.60000000000002 136.60000000000002 212.70000000000002 136.70000000000002 C 213.8 136.8 214.9 137.00000000000003 216.10000000000002 137.20000000000002 C 218.20000000000002 137.50000000000003 220.10000000000002 136.50000000000003 222.40000000000003 137.3 C 224.60000000000002 138.10000000000002 227.20000000000005 137.70000000000002 229.70000000000005 137.70000000000002 L 245.40000000000003 137.70000000000002 C 251.30000000000004 137.70000000000002 257.3 137.8 263.20000000000005 137.9 C 267.1 137.9 271.1 138.6 274.90000000000003 137.9 C 278.70000000000005 137.20000000000002 281.90000000000003 139.6 285.50000000000006 138.9 C 287.30000000000007 138.5 289.1000000000001 138.3 290.90000000000003 138.1 C 291.3 138.1 292.00000000000006 138.29999999999998 292.1 138.5 C 292.70000000000005 139.7 293.70000000000005 139.5 294.70000000000005 139.5 C 297.20000000000005 139.7 299.70000000000005 140 302.20000000000005 140.1 C 303.20000000000005 140.1 304.20000000000005 139.9 305.20000000000005 140 C 309.40000000000003 140.3 313.50000000000006 140.8 317.70000000000005 140.9 C 324.40000000000003 141.1 331.1 140.9 337.90000000000003 140.9 C 344.70000000000005 140.9 340.50000000000006 141.20000000000002 341.8 141.20000000000002 C 344.40000000000003 141.20000000000002 347 141.00000000000003 349.5 141.20000000000002 C 350.9 141.3 352.4 141.9 353.6 142.70000000000002 C 357 144.8 359.8 147.70000000000002 362.20000000000005 150.9 C 364.30000000000007 153.70000000000002 366.6 156.4 368.70000000000005 159.20000000000002 C 370.80000000000007 161.9 373.00000000000006 164.4 374.90000000000003 167.20000000000002 C 377.50000000000006 170.9 379.8 174.70000000000002 382.20000000000005 178.50000000000003 C 383.6 180.70000000000002 385.1 182.80000000000004 386.1 185.20000000000002 C 387.40000000000003 188.4 389.6 190.60000000000002 391.8 193.10000000000002 C 393.40000000000003 194.90000000000003 394.3 197.3 395.2 199.50000000000003 C 396 201.30000000000004 393.7 201.90000000000003 393.09999999999997 203.20000000000002 C 392.9 203.60000000000002 391.59999999999997 203.60000000000002 390.79999999999995 203.4 C 387.4 202.70000000000002 385.49999999999994 200.1 384.09999999999997 197.4 C 382.79999999999995 194.8 380.9 192.70000000000002 379.09999999999997 190.4 C 376.29999999999995 186.8 373.7 183.1 370.79999999999995 179.6 C 368.99999999999994 177.29999999999998 366.79999999999995 175.29999999999998 364.9 173 C 364.4 172.4 364.09999999999997 171.6 363.7 170.9 L 363.7 171.6 Z M 255 184.2 C 254 183.29999999999998 253.4 182.79999999999998 252.8 182.2 C 252.70000000000002 182.7 252.60000000000002 183.29999999999998 252.4 183.79999999999998 C 251.9 183.49999999999997 251.3 182.99999999999997 250.4 182.49999999999997 C 250.8 185.49999999999997 247.20000000000002 183.99999999999997 246.8 186.19999999999996 C 249.9 186.29999999999995 253 187.09999999999997 255.60000000000002 184.59999999999997 L 255.60000000000002 184.09999999999997 C 255.10000000000002 184.09999999999997 254.70000000000002 184.09999999999997 254.8 184.09999999999997 L 255 184.09999999999997 Z M 388.6 193.2 C 388.40000000000003 193.29999999999998 388.20000000000005 193.39999999999998 388.1 193.5 C 388.6 194.3 389 195.1 389.6 195.8 C 390.8 197.20000000000002 392.1 198.60000000000002 391.3 200.8 C 391.1 201.4 391.40000000000003 202.20000000000002 391.5 203.20000000000002 C 392.6 202.20000000000002 394.4 202.00000000000003 393.7 200.00000000000003 C 392.8 197.10000000000002 391 195.00000000000003 388.59999999999997 193.30000000000004 L 388.59999999999997 193.30000000000004 Z M 239.3 179.5 C 237.70000000000002 179.8 236.20000000000002 180 234.5 180.3 C 234.8 181.10000000000002 235.4 181.5 236.2 181.60000000000002 C 237.89999999999998 181.70000000000002 238.5 182.8 237.79999999999998 184.3 C 237.7 184.60000000000002 237.79999999999998 184.9 237.7 185.5 C 239.6 184.3 241.2 183.4 242.79999999999998 182.4 C 242.79999999999998 182.20000000000002 242.6 182 242.49999999999997 181.8 C 241.89999999999998 182 241.19999999999996 182.3 240.59999999999997 182.3 C 239.99999999999997 182.3 239.29999999999995 181.8 238.59999999999997 181.5 C 238.79999999999995 181 238.99999999999997 180.6 239.39999999999998 179.6 L 239.29999999999998 179.6 Z M 231.4 174.1 C 231.9 174.7 232.4 175.6 232.6 175.5 C 233.4 175.3 234.29999999999998 174.9 234.9 174.3 C 236.1 172.9 237 171.4 238 169.8 C 238.3 169.3 238.2 168.60000000000002 238.2 167.9 C 236.7 169.3 235.39999999999998 170.4 234.1 171.5 C 233.9 171.6 233.79999999999998 172 233.79999999999998 172.1 C 234.49999999999997 174.2 232.79999999999998 173.7 231.39999999999998 174.1 L 231.39999999999998 174.1 Z M 354.2 153.9 L 354.7 153.5 C 353.8 151.6 352.9 149.7 351.9 147.8 C 351.5 147.10000000000002 350.79999999999995 146.4 350.09999999999997 147.3 C 349.79999999999995 147.70000000000002 349.9 148.70000000000002 350.2 149.20000000000002 C 351.09999999999997 150.60000000000002 352.09999999999997 151.9 353.09999999999997 153.20000000000002 C 353.4 153.50000000000003 353.79999999999995 153.70000000000002 354.2 153.9 L 354.2 153.9 Z M 270 152.3 C 269.8 153.10000000000002 269.6 153.9 269.4 154.60000000000002 C 271.9 154.60000000000002 275.09999999999997 152.60000000000002 276.09999999999997 150.70000000000002 C 273.7 149.60000000000002 272.59999999999997 151.50000000000003 271.4 152.9 C 270.9 152.70000000000002 270.5 152.5 270 152.3 Z M 196.9 180.1 L 196.9 180.5 C 197.3 180.4 197.9 180.4 198.20000000000002 180.1 C 199.70000000000002 178.6 201.10000000000002 177.1 202.4 175.5 C 202.8 175 203.1 174.3 203.5 173.7 C 203.3 173.6 203.1 173.39999999999998 202.9 173.29999999999998 C 202 174.49999999999997 201 175.6 200.1 176.89999999999998 C 199.29999999999998 178.2 198.4 179.2 196.7 179.2 C 194.99999999999997 179.2 194.7 179.5 194.39999999999998 181.29999999999998 C 195.39999999999998 180.79999999999998 196.09999999999997 180.39999999999998 196.7 180.1 L 196.89999999999998 180.1 Z M 271.5 192.4 L 271.5 191.6 C 268.1 190.9 264.7 191.9 261.3 191.79999999999998 L 261.3 192.39999999999998 L 271.5 192.39999999999998 Z M 198.3 190.6 L 198.3 189.7 C 195.60000000000002 189.6 192.8 189.39999999999998 190.10000000000002 189.29999999999998 L 190.10000000000002 189.99999999999997 C 192.8 190.19999999999996 195.60000000000002 190.49999999999997 198.3 190.69999999999996 L 198.3 190.69999999999996 Z M 220.5 149.9 C 221.8 150.20000000000002 222.7 150.4 224 150.6 C 224 149.79999999999998 224.3 148.5 224 148.29999999999998 C 222.7 147.6 221.7 148.6 220.5 149.89999999999998 Z M 209.9 190.6 L 209.9 190.1 L 202.9 190.1 C 205.20000000000002 191.4 207.6 190.79999999999998 209.9 190.6 Z M 254.9 176.4 C 256.6 175.4 258 174.6 259.5 173.70000000000002 C 257.8 172.70000000000002 255.3 174.10000000000002 254.9 176.4 Z M 277.6 173.2 C 275.5 172.39999999999998 274.40000000000003 173.89999999999998 272.5 174.5 C 274.3 175.2 276.4 174.6 277.6 173.2 Z M 214.1 180.5 C 215.29999999999998 181.2 216.2 180.7 216.5 179.8 C 216.8 179 216.5 178 216.5 177.10000000000002 L 215.9 177.10000000000002 C 215.3 178.20000000000002 214.70000000000002 179.20000000000002 214.1 180.40000000000003 L 214.1 180.40000000000003 Z M 175.4 178.6 C 176.3 178 177.70000000000002 176.9 179.4 175.7 C 177.4 175.7 175.6 177.5 175.4 178.6 Z M 187.7 164.7 C 189.5 163.6 190.89999999999998 162.6 191.1 160.1 C 189.79999999999998 161.5 188.9 162.5 187.9 163.5 C 187.8 163.4 187.6 163.3 187.5 163.2 C 187.5 163.6 187.5 164 187.7 164.7 L 187.7 164.7 Z M 284.9 172.5 C 286.09999999999997 171.4 287 170.5 288 169.7 C 288 169.6 287.8 169.39999999999998 287.7 169.29999999999998 C 287 169.29999999999998 286.4 169.49999999999997 285.59999999999997 169.49999999999997 C 285.99999999999994 170.79999999999998 285.29999999999995 171.09999999999997 283.99999999999994 170.69999999999996 C 284.29999999999995 171.39999999999995 284.49999999999994 171.79999999999995 284.79999999999995 172.49999999999997 L 284.9 172.49999999999997 Z M 291.6 179.2 C 291.40000000000003 178.5 291.20000000000005 178.1 291.1 177.7 C 291 177.29999999999998 290.90000000000003 176.89999999999998 290.8 176.6 L 290.3 176.6 C 289.90000000000003 177.4 289.6 178.2 289.1 179.29999999999998 L 291.6 179.29999999999998 Z M 240.7 175.9 C 242.39999999999998 175.6 243.5 174.8 244.29999999999998 173.4 C 244.39999999999998 173.20000000000002 244.29999999999998 172.70000000000002 244.2 172.5 L 243.39999999999998 172.5 C 242.49999999999997 173.5 241.7 174.6 240.7 175.8 L 240.7 175.8 Z M 288.4 186.8 L 288.4 187.4 C 289 187.8 289.59999999999997 188.3 290.7 189.1 L 290.7 186.7 L 288.4 186.7 Z M 293.8 163.5 C 292.90000000000003 163.8 292 164.1 291.2 164.6 C 290.9 164.79999999999998 290.9 165.6 290.7 166.1 C 291.09999999999997 166.1 291.59999999999997 166.4 291.8 166.1 C 292.5 165.29999999999998 293.2 164.4 293.8 163.5 Z M 198.4 194.7 L 198.4 195.39999999999998 C 200.1 195.09999999999997 201.8 196.39999999999998 203.5 195.59999999999997 L 203.5 194.99999999999997 C 201.8 194.89999999999998 200.1 194.79999999999998 198.4 194.69999999999996 L 198.4 194.69999999999996 Z M 177.8 194.1 C 176.20000000000002 192.7 175.4 192.7 174.3 194.1 L 177.8 194.1 Z M 266.3 185.6 C 266.3 185.4 266.3 185.29999999999998 266.2 185.1 C 264.8 185.4 263.3 185.79999999999998 261.9 186.1 C 261.9 186.29999999999998 262 186.6 262.09999999999997 186.79999999999998 C 263.49999999999994 186.39999999999998 264.9 185.99999999999997 266.29999999999995 185.49999999999997 L 266.29999999999995 185.49999999999997 Z M 264 153.6 C 263.9 153.4 263.7 153.29999999999998 263.6 153.1 C 262.8 153.9 262 154.7 261.3 155.5 C 261.5 155.7 261.7 155.9 261.90000000000003 156.1 C 262.6 155.29999999999998 263.3 154.4 264.00000000000006 153.6 L 264.00000000000006 153.6 Z M 271.2 196.8 C 271.9 196.9 272.5 197 273 197.10000000000002 C 273 197.10000000000002 273 196.90000000000003 273.1 196.8 C 272.8 196.60000000000002 272.40000000000003 196.4 272.1 196.20000000000002 C 272.40000000000003 195.8 272.6 195.60000000000002 273 195.10000000000002 L 271.2 195.10000000000002 L 271.2 196.70000000000002 L 271.2 196.70000000000002 Z M 334.9 148.2 C 334.9 147.89999999999998 334.9 147.7 334.79999999999995 147.39999999999998 C 333.99999999999994 147.39999999999998 333.29999999999995 147.49999999999997 332.49999999999994 147.59999999999997 C 332.49999999999994 147.89999999999998 332.69999999999993 148.49999999999997 332.79999999999995 148.49999999999997 C 333.49999999999994 148.49999999999997 334.19999999999993 148.29999999999998 334.9 148.19999999999996 L 334.9 148.19999999999996 Z" stroke-linecap="round" />
</g>
		<g transform="matrix(1 0 0 1 1.08 -57.38)" id="Calque_1"  >
<path style="stroke: none; stroke-width: 0; stroke-dasharray: none; stroke-linecap: butt; stroke-dashoffset: 0; stroke-linejoin: miter; stroke-miterlimit: 4; fill: rgb(255,255,255); fill-rule: nonzero; opacity: 1;" vector-effect="non-scaling-stroke"  transform=" translate(-257.08, -79.47)" d="M 289.1 48.8 C 290.3 46.9 290.3 46.4 288.5 45.8 L 288.5 47.4 C 287.9 46.8 287.5 46.3 286.7 45.5 C 284.9 47 283 48.6 281.09999999999997 50.1 C 278.9 51.9 276.59999999999997 53.6 274.29999999999995 55.300000000000004 C 271.49999999999994 57.400000000000006 268.69999999999993 59.400000000000006 265.79999999999995 61.400000000000006 C 264.4 62.400000000000006 262.79999999999995 63.10000000000001 261.49999999999994 64.10000000000001 C 260.29999999999995 65.00000000000001 259.29999999999995 66.10000000000001 258.09999999999997 67.00000000000001 C 256.79999999999995 68.00000000000001 255.29999999999995 68.90000000000002 254.09999999999997 69.90000000000002 C 252.19999999999996 71.50000000000001 250.29999999999995 73.20000000000002 248.39999999999998 74.90000000000002 C 245.49999999999997 77.40000000000002 244.39999999999998 77.40000000000002 240.89999999999998 75.90000000000002 C 237.39999999999998 74.40000000000002 235.49999999999997 71.40000000000002 233.39999999999998 68.60000000000002 C 232.7 67.60000000000002 231.99999999999997 66.60000000000002 230.99999999999997 65.90000000000002 C 227.79999999999998 63.80000000000002 225.29999999999998 61.00000000000002 222.79999999999998 58.20000000000002 C 218.7 53.70000000000002 214.7 49.20000000000002 210.49999999999997 44.70000000000002 C 208.79999999999998 42.90000000000002 206.59999999999997 41.40000000000002 204.99999999999997 39.500000000000014 C 202.99999999999997 37.100000000000016 200.59999999999997 35.100000000000016 198.49999999999997 32.80000000000001 C 197.79999999999998 32.000000000000014 196.69999999999996 31.20000000000001 197.49999999999997 29.70000000000001 C 197.59999999999997 29.50000000000001 197.29999999999998 29.10000000000001 197.09999999999997 28.40000000000001 C 196.79999999999995 29.10000000000001 196.59999999999997 29.50000000000001 196.49999999999997 29.800000000000008 C 189.69999999999996 23.400000000000006 182.99999999999997 17.000000000000007 176.19999999999996 10.600000000000009 C 175.59999999999997 10.600000000000009 174.79999999999995 10.600000000000009 173.79999999999995 10.500000000000009 C 173.49999999999994 13.90000000000001 170.49999999999994 14.70000000000001 167.89999999999995 16.10000000000001 C 163.29999999999995 18.60000000000001 158.69999999999996 21.20000000000001 154.09999999999994 23.70000000000001 C 153.09999999999994 24.20000000000001 151.89999999999995 24.20000000000001 150.79999999999993 24.60000000000001 C 150.19999999999993 24.800000000000008 149.69999999999993 25.300000000000008 149.29999999999993 25.70000000000001 C 148.89999999999992 26.100000000000012 148.79999999999993 26.80000000000001 148.29999999999993 27.00000000000001 C 146.49999999999991 27.90000000000001 144.69999999999993 28.70000000000001 142.79999999999993 29.600000000000012 C 142.39999999999992 29.100000000000012 142.09999999999994 28.700000000000014 141.59999999999994 28.100000000000012 C 140.59999999999994 32.30000000000001 136.69999999999993 33.500000000000014 133.69999999999993 35.30000000000001 C 130.59999999999994 37.20000000000001 127.39999999999993 38.70000000000001 124.69999999999993 41.20000000000001 C 123.39999999999993 42.40000000000001 121.49999999999993 43.00000000000001 119.99999999999993 44.00000000000001 C 117.49999999999993 45.800000000000004 115.09999999999992 47.800000000000004 112.49999999999993 49.50000000000001 C 109.39999999999993 51.50000000000001 106.19999999999993 53.400000000000006 102.89999999999993 55.20000000000001 C 100.89999999999993 56.30000000000001 98.69999999999993 57.00000000000001 96.89999999999993 58.30000000000001 C 95.29999999999994 59.40000000000001 93.99999999999993 60.90000000000001 92.59999999999994 62.30000000000001 C 89.19999999999993 65.80000000000001 85.29999999999994 68.70000000000002 80.99999999999994 71.00000000000001 C 75.89999999999995 73.70000000000002 71.09999999999994 76.90000000000002 66.09999999999994 79.70000000000002 C 63.499999999999936 81.20000000000002 60.69999999999994 82.50000000000001 57.999999999999936 83.80000000000001 C 55.69999999999994 84.9 53.29999999999993 86.00000000000001 51.09999999999994 87.20000000000002 C 47.59999999999994 89.00000000000001 43.999999999999936 90.70000000000002 40.59999999999994 92.70000000000002 C 35.69999999999994 95.50000000000001 30.999999999999936 98.60000000000002 26.19999999999994 101.60000000000002 C 24.29999999999994 102.80000000000003 22.399999999999938 104.10000000000002 20.49999999999994 105.30000000000003 C 20.399999999999938 105.30000000000003 20.19999999999994 105.60000000000002 19.99999999999994 105.50000000000003 C 16.49999999999994 105.10000000000002 13.89999999999994 107.30000000000003 10.99999999999994 108.70000000000003 C 9.39999999999994 109.50000000000003 8.199999999999939 109.50000000000003 7.39999999999994 107.40000000000003 C 6.79999999999994 108.40000000000003 6.49999999999994 109.20000000000003 5.89999999999994 109.90000000000003 C 5.09999999999994 110.80000000000004 4.39999999999994 110.40000000000003 4.39999999999994 109.40000000000003 C 4.39999999999994 108.40000000000003 4.69999999999994 107.10000000000004 5.19999999999994 106.30000000000004 C 7.69999999999994 102.20000000000005 11.699999999999939 99.80000000000004 15.699999999999939 97.50000000000004 C 20.19999999999994 95.00000000000004 24.69999999999994 92.50000000000004 29.19999999999994 89.80000000000004 C 34.39999999999994 86.70000000000005 39.49999999999994 83.60000000000004 44.59999999999994 80.40000000000003 C 51.09999999999994 76.30000000000004 57.59999999999994 72.20000000000003 64.09999999999994 68.10000000000004 C 72.79999999999994 62.60000000000004 81.79999999999994 57.400000000000034 90.99999999999994 52.70000000000004 C 96.69999999999995 49.80000000000004 102.19999999999995 46.500000000000036 107.79999999999994 43.10000000000004 C 114.19999999999995 39.20000000000004 120.49999999999994 35.20000000000004 126.79999999999994 31.20000000000004 C 127.59999999999994 30.70000000000004 128.19999999999993 29.600000000000037 128.99999999999994 29.100000000000037 C 131.19999999999993 27.600000000000037 133.49999999999994 26.100000000000037 135.79999999999995 24.800000000000036 C 141.49999999999994 21.600000000000037 146.89999999999995 18.000000000000036 152.09999999999997 13.900000000000036 C 153.29999999999995 12.900000000000036 154.79999999999995 12.400000000000036 156.09999999999997 11.500000000000036 C 157.79999999999995 10.300000000000036 159.49999999999997 9.000000000000036 161.19999999999996 7.800000000000035 C 162.39999999999995 7.0000000000000355 163.59999999999997 6.200000000000035 164.69999999999996 5.400000000000036 C 166.69999999999996 4.0000000000000355 168.59999999999997 2.600000000000036 170.69999999999996 1.3000000000000362 C 171.19999999999996 1.0000000000000362 172.19999999999996 1.0000000000000362 172.79999999999995 1.3000000000000362 C 173.99999999999994 1.9000000000000363 174.89999999999995 1.7000000000000361 176.09999999999997 1.1000000000000363 C 177.6 0.6 179.4 0 180.9 0 C 182.4 0 182.8 1.3 183.5 2.2 C 185.6 4.9 187.5 7.8 189.7 10.5 C 192.6 14 195.6 17.5 198.7 20.9 C 200.39999999999998 22.799999999999997 202.29999999999998 24.599999999999998 204 26.5 C 207 30.1 209.8 33.8 212.8 37.4 C 213.9 38.699999999999996 215.20000000000002 39.8 216.20000000000002 41.1 C 218.3 43.6 220.3 46.1 222.4 48.6 C 225.8 52.5 229 56.7 232.9 60.2 C 238.9 65.7 243.9 64.7 250.9 60.900000000000006 C 255.1 58.60000000000001 259.1 55.900000000000006 263.1 53.300000000000004 C 266.20000000000005 51.300000000000004 269.1 49.00000000000001 272.20000000000005 47.1 C 277.50000000000006 43.7 282.90000000000003 40.5 288.40000000000003 37.3 C 290.90000000000003 35.8 292.90000000000003 36.699999999999996 293.90000000000003 39.5 C 294.50000000000006 41.3 295.1 43 295.70000000000005 44.8 C 296.50000000000006 47.5 298.00000000000006 49.699999999999996 299.80000000000007 51.9 C 301.9000000000001 54.5 303.4000000000001 57.5 305.1000000000001 60.4 C 306.6000000000001 63.1 307.6000000000001 63.5 310.2000000000001 61.8 C 312.4000000000001 60.4 314.5000000000001 58.8 316.5000000000001 57.099999999999994 C 319.2000000000001 54.89999999999999 322.2000000000001 53.8 325.5000000000001 53.39999999999999 C 326.0000000000001 53.39999999999999 326.9000000000001 53.89999999999999 327.2000000000001 54.39999999999999 C 328.6000000000001 56.49999999999999 329.7000000000001 58.69999999999999 331.1000000000001 60.79999999999999 C 331.9000000000001 61.99999999999999 333.1000000000001 62.99999999999999 334.00000000000006 64.19999999999999 C 336.40000000000003 67.29999999999998 338.6000000000001 70.69999999999999 341.20000000000005 73.6 C 344.40000000000003 77.19999999999999 348.20000000000005 80.3 351.50000000000006 83.8 C 354.30000000000007 86.6 356.70000000000005 89.7 359.40000000000003 92.6 C 361.00000000000006 94.3 363.00000000000006 95.8 364.6 97.6 C 369.70000000000005 103.3 374.70000000000005 109 379.6 114.8 C 382.3 118 384.70000000000005 121.5 387.3 124.8 C 387.5 125.1 387.7 125.39999999999999 388 125.7 C 391.4 129.5 394.6 133.4 398.1 137 C 401 139.9 404.20000000000005 142.7 407.5 145.2 C 408.8 146.2 410.8 146.39999999999998 412.5 146.89999999999998 C 412.7 146.89999999999998 413 146.89999999999998 413.2 147.2 C 415.2 149.39999999999998 416.7 147.6 418.09999999999997 146.39999999999998 C 419.09999999999997 145.59999999999997 420.09999999999997 144.59999999999997 421.09999999999997 143.7 C 426.2 139.29999999999998 431.59999999999997 135 436.49999999999994 130.39999999999998 C 440.79999999999995 126.39999999999998 445.49999999999994 122.79999999999998 450.49999999999994 119.59999999999998 C 452.59999999999997 118.29999999999998 454.8999999999999 117.09999999999998 456.99999999999994 115.69999999999997 C 459.09999999999997 114.29999999999997 461.09999999999997 112.59999999999998 463.19999999999993 111.19999999999997 C 465.0999999999999 109.89999999999998 467.19999999999993 108.79999999999997 469.19999999999993 107.59999999999998 C 473.29999999999995 105.09999999999998 477.49999999999994 102.59999999999998 481.5999999999999 100.09999999999998 C 482.7999999999999 99.39999999999998 484.0999999999999 98.69999999999997 485.3999999999999 97.99999999999999 C 489.5999999999999 95.49999999999999 493.8999999999999 92.99999999999999 498.0999999999999 90.59999999999998 C 498.3999999999999 90.59999999999998 498.69999999999993 90.19999999999997 498.69999999999993 89.99999999999999 C 499.3999999999999 86.89999999999999 502.69999999999993 87.09999999999998 504.49999999999994 85.29999999999998 C 504.8999999999999 84.89999999999998 506.49999999999994 84.89999999999998 506.8999999999999 85.29999999999998 C 507.3999999999999 85.89999999999998 507.19999999999993 86.99999999999999 507.3999999999999 88.19999999999999 C 507.3999999999999 88.19999999999999 507.7999999999999 88.19999999999999 508.19999999999993 88.39999999999999 C 509.8999999999999 89.1 510.29999999999995 89.99999999999999 508.99999999999994 91.3 C 507.79999999999995 92.5 506.29999999999995 93.5 504.79999999999995 94.5 C 502.29999999999995 96.2 499.99999999999994 98.1 497.29999999999995 99.2 C 494.49999999999994 100.3 492.29999999999995 102.4 489.59999999999997 103.60000000000001 C 487.49999999999994 104.60000000000001 485.79999999999995 106.4 483.79999999999995 107.60000000000001 C 481.99999999999994 108.7 479.99999999999994 109.50000000000001 478.09999999999997 110.50000000000001 C 475.99999999999994 111.70000000000002 473.99999999999994 112.90000000000002 471.99999999999994 114.20000000000002 C 467.69999999999993 117.00000000000001 463.49999999999994 119.80000000000001 459.29999999999995 122.70000000000002 C 454.99999999999994 125.60000000000002 451.09999999999997 128.9 447.59999999999997 132.8 C 445.79999999999995 134.9 443.2 136.3 441.2 138.20000000000002 C 438.5 140.70000000000002 436.2 143.60000000000002 433.4 146.00000000000003 C 429.2 149.60000000000002 425.9 154.20000000000002 420.9 156.80000000000004 C 419.7 157.40000000000003 418.5 158.10000000000005 417.2 158.70000000000005 C 416.9 158.90000000000003 416.4 159.00000000000006 416.2 158.90000000000003 C 414.4 157.90000000000003 412.5 156.90000000000003 410.8 155.80000000000004 C 409.90000000000003 155.20000000000005 409.2 154.30000000000004 408.40000000000003 153.50000000000003 C 405.70000000000005 151.20000000000002 402.8 149.00000000000003 400.20000000000005 146.50000000000003 C 396.80000000000007 143.20000000000002 393.50000000000006 139.80000000000004 390.40000000000003 136.20000000000002 C 386.90000000000003 132.20000000000002 383.70000000000005 127.90000000000002 380.20000000000005 123.90000000000002 C 376.90000000000003 120.20000000000002 373.40000000000003 116.80000000000003 370.1 113.10000000000002 C 368.40000000000003 111.30000000000003 366.90000000000003 109.20000000000002 365.40000000000003 107.30000000000003 C 363.3 104.70000000000003 361.3 102.10000000000002 359.20000000000005 99.60000000000002 C 356.70000000000005 96.70000000000002 354.1 93.90000000000002 351.50000000000006 91.00000000000003 C 349.30000000000007 88.60000000000002 347.20000000000005 86.00000000000003 344.90000000000003 83.70000000000003 C 341.3 80.00000000000003 337.50000000000006 76.50000000000003 333.8 72.90000000000003 C 331.3 70.50000000000003 328.90000000000003 68.10000000000004 326.3 66.00000000000003 C 325.2 65.10000000000002 324 64.70000000000003 323.5 63.10000000000003 C 323.1 61.90000000000003 321.8 62.80000000000003 321.5 63.40000000000003 C 319.9 67.20000000000003 316.1 68.60000000000002 313.2 70.90000000000003 C 311.9 71.90000000000003 310.8 73.00000000000003 309.3 73.50000000000003 C 307.5 74.20000000000003 306 73.80000000000003 304.7 72.60000000000002 C 304.2 72.20000000000002 303.8 71.60000000000002 303.5 71.00000000000003 C 301.4 67.50000000000003 299.3 63.90000000000003 297.2 60.40000000000003 C 295.7 57.800000000000026 294.2 55.200000000000024 292.59999999999997 52.700000000000024 C 291.7 51.300000000000026 290.49999999999994 50.200000000000024 289.29999999999995 48.800000000000026 L 289.09999999999997 48.800000000000026 Z M 244 72.7 C 244.1 72.9 244.2 73 244.3 73.2 C 248.9 70.7 253.10000000000002 67.8 257 64.3 C 256.9 64.1 256.8 64 256.7 63.8 C 252.5 66.8 248.29999999999998 69.7 244 72.7 L 244 72.7 Z M 58.1 79.6 C 61.4 79.1 71.5 72.6 72.4 70.6 C 67.80000000000001 73.5 63.10000000000001 76.39999999999999 58.10000000000001 79.6 Z M 73.7 70.3 C 75.8 69.89999999999999 77.60000000000001 69.5 78.60000000000001 67.39999999999999 C 77.2 67.39999999999999 74.30000000000001 68.99999999999999 73.7 70.3 Z M 81.9 64.2 C 81.30000000000001 65.10000000000001 80.9 65.8 80.4 66.4 C 80.4 66.4 80.60000000000001 66.60000000000001 80.7 66.80000000000001 C 81.7 66.10000000000001 82.8 65.4 84.10000000000001 64.50000000000001 C 83.00000000000001 64.50000000000001 82.4 64.30000000000001 81.80000000000001 64.20000000000002 L 81.80000000000001 64.20000000000002 Z M 190 17.7 L 190 18.099999999999998 C 190.8 17.9 191.5 17.799999999999997 192.2 17.599999999999998 C 191.89999999999998 17.099999999999998 191.7 16.499999999999996 191.5 16.2 C 190.9 16.8 190.5 17.3 190.1 17.7 L 190 17.7 Z" stroke-linecap="round" />
</g>
		<g transform="matrix(1 0 0 1 -115.85 38.05)" id="Calque_1"  >
<path style="stroke: none; stroke-width: 0; stroke-dasharray: none; stroke-linecap: butt; stroke-dashoffset: 0; stroke-linejoin: miter; stroke-miterlimit: 4; fill: rgb(255,255,255); fill-rule: nonzero; opacity: 1;" vector-effect="non-scaling-stroke"  transform=" translate(-140.15, -174.9)" d="M 167.7 207.2 L 167.7 208.6 C 166.6 208.29999999999998 165.5 207.79999999999998 164.29999999999998 207.7 C 162.29999999999998 207.5 160.29999999999998 207.6 158.39999999999998 207.39999999999998 C 154.79999999999998 207.09999999999997 151.2 206.59999999999997 147.59999999999997 206.39999999999998 C 144.99999999999997 206.29999999999998 142.39999999999998 206.59999999999997 139.89999999999998 206.39999999999998 C 133.79999999999998 206.09999999999997 127.79999999999998 205.79999999999998 121.69999999999997 205.39999999999998 C 120.89999999999998 205.39999999999998 120.19999999999997 204.99999999999997 119.39999999999998 204.79999999999998 C 118.79999999999998 204.6 118.29999999999998 204.29999999999998 117.69999999999997 204.2 C 113.39999999999998 203.89999999999998 109.09999999999998 203.7 104.79999999999997 203.39999999999998 C 103.89999999999996 203.39999999999998 102.99999999999997 202.79999999999998 102.09999999999997 202.7 C 101.39999999999996 202.7 100.59999999999997 203 99.89999999999996 202.89999999999998 C 99.39999999999996 202.89999999999998 98.89999999999996 202.49999999999997 98.19999999999996 202.09999999999997 C 97.09999999999997 204.39999999999998 94.79999999999995 202.79999999999995 92.89999999999996 202.89999999999998 C 87.39999999999996 203.29999999999998 81.89999999999996 203.29999999999998 76.39999999999996 203.49999999999997 C 73.09999999999997 203.59999999999997 69.79999999999997 204.29999999999998 66.59999999999997 203.99999999999997 C 63.69999999999997 203.69999999999996 61.099999999999966 205.09999999999997 58.19999999999997 205.09999999999997 C 50.999999999999964 205.09999999999997 43.79999999999997 205.49999999999997 36.599999999999966 205.79999999999995 C 34.599999999999966 205.79999999999995 32.599999999999966 206.19999999999996 30.499999999999964 206.29999999999995 C 28.799999999999965 206.29999999999995 27.199999999999964 205.79999999999995 25.599999999999966 207.09999999999997 C 25.099999999999966 207.49999999999997 23.999999999999964 207.09999999999997 23.099999999999966 207.09999999999997 C 18.399999999999967 207.29999999999995 13.799999999999965 207.59999999999997 9.099999999999966 207.69999999999996 C 6.899999999999966 207.69999999999996 4.599999999999966 207.69999999999996 2.3999999999999657 207.59999999999997 C 1.8999999999999657 207.59999999999997 1.3999999999999657 207.59999999999997 0.9999999999999658 207.39999999999998 C 0.6999999999999658 207.09999999999997 0.29999999999996585 206.59999999999997 -0.10000000000003428 206.09999999999997 C 0.29999999999996574 205.59999999999997 0.6999999999999658 204.79999999999995 1.1999999999999658 204.69999999999996 C 3.4999999999999654 204.29999999999995 5.899999999999966 204.09999999999997 8.199999999999966 203.79999999999995 C 8.499999999999966 203.79999999999995 8.799999999999965 203.79999999999995 9.199999999999966 203.29999999999995 C 8.499999999999966 202.89999999999995 7.899999999999966 202.49999999999994 6.599999999999966 201.79999999999995 C 8.099999999999966 201.19999999999996 9.199999999999966 200.59999999999997 10.299999999999965 200.49999999999994 C 15.699999999999966 199.89999999999995 21.099999999999966 199.49999999999994 26.499999999999964 198.79999999999995 C 28.399999999999963 198.49999999999994 30.599999999999966 198.59999999999997 32.19999999999997 196.79999999999995 C 32.499999999999964 196.49999999999994 33.19999999999997 196.29999999999995 33.499999999999964 196.49999999999994 C 35.599999999999966 197.89999999999995 37.89999999999996 196.89999999999995 39.999999999999964 196.89999999999995 C 44.499999999999964 196.89999999999995 48.999999999999964 196.79999999999995 53.499999999999964 196.59999999999994 C 59.89999999999996 196.39999999999995 66.39999999999996 196.19999999999993 72.79999999999997 195.89999999999995 L 73.49999999999997 195.89999999999995 C 74.59999999999997 195.69999999999996 76.49999999999997 195.59999999999994 76.49999999999997 195.29999999999995 C 76.79999999999997 193.59999999999997 76.49999999999997 191.69999999999996 76.49999999999997 189.89999999999995 C 76.49999999999997 189.59999999999994 75.39999999999998 189.19999999999996 74.89999999999998 189.29999999999995 C 73.79999999999998 189.29999999999995 73.19999999999997 189.19999999999996 72.59999999999998 188.09999999999997 C 71.19999999999997 185.69999999999996 67.69999999999997 184.99999999999997 65.19999999999997 185.99999999999997 C 64.29999999999997 186.39999999999998 63.09999999999997 185.99999999999997 61.99999999999997 186.19999999999996 C 61.199999999999974 186.39999999999995 60.29999999999997 186.69999999999996 59.59999999999997 187.29999999999995 C 57.799999999999976 188.69999999999996 56.09999999999997 188.69999999999996 54.799999999999976 186.89999999999995 C 54.49999999999998 186.49999999999994 54.199999999999974 185.89999999999995 54.299999999999976 185.49999999999994 C 54.89999999999998 183.09999999999994 55.299999999999976 180.59999999999994 56.199999999999974 178.29999999999995 C 57.49999999999997 174.79999999999995 59.199999999999974 171.59999999999997 60.59999999999997 168.09999999999997 C 61.39999999999997 165.99999999999997 61.39999999999997 163.69999999999996 59.799999999999976 161.89999999999998 C 58.799999999999976 160.79999999999998 58.59999999999997 159.7 59.09999999999997 158.39999999999998 C 60.699999999999974 154.29999999999998 62.49999999999997 150.2 63.699999999999974 145.99999999999997 C 64.69999999999997 142.59999999999997 66.09999999999998 139.49999999999997 68.29999999999997 136.79999999999998 C 68.69999999999997 136.29999999999998 69.09999999999997 135.89999999999998 69.59999999999997 135.39999999999998 C 72.09999999999997 132.7 74.89999999999996 130.29999999999998 77.09999999999997 127.39999999999998 C 78.59999999999997 125.49999999999997 79.39999999999996 122.89999999999998 80.59999999999997 120.59999999999998 C 81.19999999999996 119.39999999999998 81.89999999999996 118.09999999999998 82.89999999999996 117.29999999999998 C 84.19999999999996 116.19999999999999 85.39999999999996 115.19999999999999 85.99999999999996 113.49999999999999 C 86.49999999999996 112.29999999999998 87.39999999999996 111.29999999999998 88.29999999999995 110.29999999999998 C 89.09999999999995 109.19999999999999 89.99999999999996 107.99999999999999 90.99999999999996 107.19999999999999 C 91.79999999999995 106.6 92.89999999999996 106.29999999999998 93.89999999999996 106.29999999999998 C 94.89999999999996 106.29999999999998 95.69999999999996 107.29999999999998 95.59999999999997 108.59999999999998 C 95.39999999999996 110.49999999999999 94.99999999999997 112.39999999999998 94.79999999999997 114.29999999999998 C 94.79999999999997 115.39999999999998 94.79999999999997 116.59999999999998 94.79999999999997 117.69999999999999 C 94.99999999999997 117.69999999999999 95.19999999999997 117.49999999999999 95.29999999999997 117.29999999999998 C 96.19999999999997 117.69999999999999 97.39999999999996 117.89999999999998 97.79999999999997 118.59999999999998 C 98.69999999999997 120.19999999999997 100.19999999999997 121.89999999999998 98.89999999999996 124.09999999999998 C 97.99999999999996 125.49999999999999 97.99999999999996 126.59999999999998 99.29999999999997 127.79999999999998 C 99.99999999999997 128.39999999999998 100.39999999999996 129.49999999999997 100.89999999999996 130.29999999999998 C 101.79999999999997 131.99999999999997 102.59999999999997 133.7 103.59999999999997 135.29999999999998 C 104.59999999999997 136.79999999999998 104.49999999999997 138.2 103.59999999999997 139.39999999999998 C 102.69999999999996 140.49999999999997 102.69999999999996 141.49999999999997 103.09999999999997 142.59999999999997 C 103.29999999999997 143.39999999999998 103.59999999999997 144.19999999999996 103.89999999999996 144.99999999999997 C 104.09999999999997 145.59999999999997 104.39999999999996 146.69999999999996 104.69999999999996 146.69999999999996 C 105.39999999999996 146.69999999999996 106.19999999999996 146.39999999999995 106.79999999999995 145.89999999999995 C 108.99999999999996 143.79999999999995 110.79999999999995 141.29999999999995 113.19999999999996 139.59999999999994 C 116.19999999999996 137.59999999999994 116.99999999999996 135.19999999999993 116.39999999999996 131.69999999999993 C 116.39999999999996 130.99999999999994 117.19999999999996 129.59999999999994 117.89999999999996 129.29999999999993 C 118.89999999999996 128.79999999999993 120.29999999999997 128.79999999999993 120.89999999999996 130.39999999999992 C 121.09999999999997 130.99999999999991 121.49999999999996 131.5999999999999 122.09999999999997 132.69999999999993 C 122.39999999999996 131.69999999999993 122.49999999999997 131.39999999999992 122.49999999999997 130.99999999999994 C 122.49999999999997 128.69999999999993 123.79999999999997 127.49999999999994 125.89999999999998 128.09999999999994 C 126.59999999999998 128.29999999999993 127.39999999999998 128.09999999999994 128.2 128.09999999999994 C 129 128.29999999999993 130.2 128.39999999999995 130.5 128.99999999999994 C 130.8 129.49999999999994 130.3 130.79999999999995 129.8 131.39999999999995 C 128.9 132.59999999999994 128.8 133.49999999999994 130.20000000000002 134.09999999999994 C 131.60000000000002 134.69999999999993 131.9 135.59999999999994 131.8 137.09999999999994 C 131.4 142.89999999999995 133.4 148.09999999999994 135.8 152.99999999999994 C 136.9 155.39999999999995 138.70000000000002 157.29999999999995 140.20000000000002 159.49999999999994 C 142.50000000000003 162.89999999999995 144.70000000000002 166.29999999999995 145.10000000000002 170.59999999999994 C 145.10000000000002 171.29999999999993 144.70000000000002 172.09999999999994 144.60000000000002 172.79999999999993 C 143.8 172.49999999999991 142.8 172.49999999999991 142.20000000000002 171.89999999999992 C 140.20000000000002 169.69999999999993 138.50000000000003 167.29999999999993 136.60000000000002 165.19999999999993 C 136.20000000000002 164.79999999999993 135.40000000000003 164.79999999999993 134.70000000000002 164.89999999999992 C 134.50000000000003 164.89999999999992 134.20000000000002 165.89999999999992 134.4 166.19999999999993 C 134.9 167.19999999999993 135.4 168.19999999999993 136.20000000000002 168.89999999999992 C 138.9 171.39999999999992 139.9 174.89999999999992 141.50000000000003 178.0999999999999 C 142.10000000000002 179.2999999999999 142.80000000000004 180.2999999999999 143.30000000000004 181.49999999999991 C 143.70000000000005 182.29999999999993 144.00000000000003 183.29999999999993 143.90000000000003 184.0999999999999 C 143.90000000000003 184.49999999999991 142.80000000000004 184.7999999999999 142.20000000000005 185.1999999999999 C 141.40000000000003 185.7999999999999 140.70000000000005 186.49999999999991 139.80000000000004 187.2999999999999 C 139.40000000000003 186.5999999999999 139.20000000000005 186.1999999999999 138.80000000000004 185.3999999999999 C 138.50000000000003 186.09999999999988 138.30000000000004 186.59999999999988 138.10000000000005 187.2999999999999 C 136.90000000000006 185.9999999999999 135.80000000000004 185.2999999999999 134.00000000000006 185.5999999999999 C 133.20000000000005 185.7999999999999 132.10000000000005 184.49999999999991 131.10000000000005 184.0999999999999 C 130.10000000000005 183.6999999999999 129.90000000000006 184.0999999999999 129.30000000000004 184.0999999999999 C 129.30000000000004 184.6999999999999 129.10000000000005 185.5999999999999 129.50000000000003 185.99999999999991 C 130.50000000000003 187.1999999999999 131.70000000000002 188.1999999999999 132.70000000000002 189.39999999999992 C 133.20000000000002 189.99999999999991 133.70000000000002 191.0999999999999 133.50000000000003 191.79999999999993 C 133.10000000000002 192.89999999999992 132.20000000000002 193.79999999999993 130.90000000000003 193.19999999999993 C 129.90000000000003 192.79999999999993 128.90000000000003 192.19999999999993 127.90000000000003 191.79999999999993 C 126.10000000000004 191.09999999999994 124.70000000000003 192.09999999999994 124.50000000000003 194.19999999999993 C 124.50000000000003 195.19999999999993 124.30000000000003 196.19999999999993 124.20000000000003 197.59999999999994 C 126.00000000000003 197.79999999999993 127.70000000000003 197.89999999999995 129.50000000000003 198.09999999999994 C 135.90000000000003 198.79999999999993 142.30000000000004 199.39999999999995 148.70000000000002 200.19999999999993 C 153.60000000000002 200.79999999999993 158.4 201.69999999999993 163.3 202.29999999999993 C 166.20000000000002 202.69999999999993 169.20000000000002 202.79999999999993 172.10000000000002 203.29999999999993 C 177.20000000000002 204.19999999999993 182.20000000000002 205.49999999999991 187.3 206.49999999999991 C 191.8 207.39999999999992 196.4 208.1999999999999 200.9 209.1999999999999 C 204.4 209.8999999999999 207.8 210.99999999999991 211.3 211.49999999999991 C 218.5 212.49999999999991 225.5 214.39999999999992 232.4 216.5999999999999 C 236.6 217.89999999999992 240.8 219.2999999999999 244.9 220.89999999999992 C 247.70000000000002 221.99999999999991 250.20000000000002 223.99999999999991 253.1 224.79999999999993 C 258.4 226.19999999999993 262.2 230.09999999999994 266.5 233.09999999999994 C 268.4 234.39999999999995 270.5 235.49999999999994 272.4 236.69999999999993 C 274.9 238.29999999999993 277.29999999999995 239.89999999999992 279.7 241.59999999999994 C 280.09999999999997 241.79999999999993 280.2 242.49999999999994 280.4 242.89999999999995 C 280 243.09999999999994 279.5 243.49999999999994 279.2 243.49999999999994 C 278.09999999999997 243.19999999999993 276.9 242.79999999999995 275.8 242.29999999999995 C 274.40000000000003 241.69999999999996 273.2 240.69999999999996 271.6 241.99999999999994 C 271.3 242.19999999999993 270.5 241.79999999999995 270 241.49999999999994 C 266.3 239.19999999999993 262.7 236.79999999999995 259 234.59999999999994 C 257.4 233.69999999999993 255.6 233.49999999999994 253.9 232.89999999999995 C 250.4 231.69999999999996 246.8 230.39999999999995 243.3 229.19999999999996 C 239.10000000000002 227.79999999999995 234.8 226.39999999999995 230.60000000000002 225.09999999999997 C 226.40000000000003 223.79999999999998 222.20000000000002 222.39999999999998 218.00000000000003 221.19999999999996 C 210.90000000000003 219.19999999999996 203.80000000000004 217.29999999999995 196.70000000000002 215.49999999999997 C 193.8 214.79999999999998 191.00000000000003 213.99999999999997 188.10000000000002 213.69999999999996 C 183.90000000000003 213.19999999999996 179.8 212.19999999999996 175.90000000000003 210.69999999999996 C 174.50000000000003 210.19999999999996 172.90000000000003 209.99999999999997 171.40000000000003 209.89999999999995 C 169.70000000000005 209.89999999999995 168.80000000000004 208.79999999999995 168.20000000000005 206.99999999999994 C 168.10000000000005 207.09999999999994 167.90000000000003 207.19999999999993 167.80000000000004 207.39999999999995 L 167.80000000000004 207.19999999999996 Z M 117.5 188.6 C 115.3 187.7 113.7 188.29999999999998 112.2 189.9 C 111.10000000000001 191.20000000000002 110 192.5 108.8 193.6 C 108.39999999999999 194 107.3 194.5 107.1 194.29999999999998 C 106.1 193.29999999999998 103.89999999999999 194.2 103.8 191.79999999999998 C 103.8 191.6 103.3 191.49999999999997 103.1 191.29999999999998 C 100.89999999999999 190.2 100.69999999999999 189.49999999999997 101.89999999999999 187.29999999999998 C 102.1 186.89999999999998 102.19999999999999 186.49999999999997 102.6 185.7 C 101.3 186.2 100.39999999999999 186.6 99.3 187 C 99.6 187.7 99.8 188.2 100 188.8 C 100.5 190.20000000000002 100.6 191.8 99.4 192.70000000000002 C 98.10000000000001 193.50000000000003 96.7 193.10000000000002 95.7 191.8 C 95 190.9 94.4 189.9 94 188.9 C 93.3 186.9 91.8 186.4 90.1 186.4 C 88.39999999999999 186.4 87.6 186.3 86.39999999999999 186.4 C 85.89999999999999 186.4 85.1 187.3 85.19999999999999 187.5 C 86.1 189.8 85.19999999999999 191.6 84.19999999999999 193.5 C 83.99999999999999 194 83.89999999999999 194.6 83.6 195.5 C 95.1 195.9 106.39999999999999 196.2 117.89999999999999 196.6 C 117.89999999999999 193.79999999999998 117.6 191.2 117.49999999999999 188.6 L 117.49999999999999 188.6 Z M 117.9 164 C 117.60000000000001 163.8 117.4 163.5 117.10000000000001 163.3 C 116.80000000000001 163.9 116.50000000000001 164.60000000000002 116.10000000000001 165.10000000000002 C 115.4 166.00000000000003 114.80000000000001 167.10000000000002 113.9 167.8 C 112.7 168.70000000000002 112 169.60000000000002 112.10000000000001 171.20000000000002 C 112.10000000000001 171.70000000000002 111.7 172.20000000000002 111.4 172.60000000000002 C 109.80000000000001 174.40000000000003 108.10000000000001 176.10000000000002 106.5 177.90000000000003 C 106.2 178.30000000000004 106.1 178.90000000000003 105.8 179.30000000000004 C 107 178.70000000000005 107.7 177.60000000000005 108.8 177.10000000000005 C 111.5 175.60000000000005 112.8 173.10000000000005 113.7 170.30000000000004 C 114 169.40000000000003 114.8 168.40000000000003 115.60000000000001 168.00000000000003 C 117.30000000000001 167.20000000000002 117.80000000000001 165.80000000000004 118.00000000000001 164.10000000000002 L 117.90000000000002 164.10000000000002 Z M 36.5 201.3 L 36.5 202.20000000000002 C 41.9 201.9 47.3 201.60000000000002 52.7 201.3 C 47.2 200.10000000000002 41.800000000000004 200.4 36.400000000000006 201.3 L 36.400000000000006 201.3 Z M 90.7 168 C 90.9 167.3 91.4 166.4 91.2 166 C 90.3 164.4 89.10000000000001 163 87.9 161.4 C 87.30000000000001 164.4 89.10000000000001 166 90.80000000000001 168 L 90.80000000000001 168 Z M 98.1 179.7 C 97 177.79999999999998 96 176.29999999999998 95 174.7 C 94.5 178.7 95.5 180.29999999999998 98.1 179.7 Z M 234.7 222.7 C 233.89999999999998 220 230.5 218.79999999999998 228.29999999999998 220.7 C 230.49999999999997 221.39999999999998 232.6 222.1 234.7 222.7 Z M 25.1 202.2 C 28.3 204.2 31.200000000000003 202.2 34.2 202.2 L 34.2 201.6 C 31.200000000000003 201.79999999999998 28.1 202 25.1 202.2 Z M 61.5 179.3 C 62.7 177.60000000000002 64 175.8 65.5 173.8 C 62.4 174.4 61 176.70000000000002 61.5 179.3 Z M 101.6 162.3 C 101.6 162.20000000000002 101.3 162.10000000000002 101.19999999999999 162 C 100.19999999999999 162.4 99.19999999999999 162.8 97.99999999999999 163.4 C 98.39999999999999 164.4 98.79999999999998 165.3 99.39999999999999 166.70000000000002 C 100.39999999999999 164.8 100.99999999999999 163.60000000000002 101.69999999999999 162.3 L 101.6 162.3 Z M 96.6 157.2 C 97.6 155.39999999999998 96.6 151.5 94.6 150.5 C 95.3 152.9 95.89999999999999 154.9 96.6 157.2 Z M 84.2 171.2 C 84.2 173.29999999999998 83.9 175 83.8 176.6 C 85.8 176.2 85.89999999999999 175 84.2 171.2 Z M 121.2 152.3 L 121.2 147.70000000000002 C 119.60000000000001 149.3 119.5 150.00000000000003 121.2 152.3 Z M 78 173.3 C 78 173.3 77.7 173.3 77.6 173.20000000000002 C 77.3 175.8 75.19999999999999 177.9 76 180.9 C 76.7 178.4 77.4 175.9 78.1 173.4 L 78.1 173.4 Z M 12.1 203.2 L 12.1 203.5 L 17.2 203.5 L 17.2 202.8 C 15.5 202.9 13.799999999999999 203.10000000000002 12.1 203.20000000000002 Z M 117.6 185.3 C 117.6 185.5 117.39999999999999 185.70000000000002 117.3 185.8 C 118.2 186.4 119.1 187 120.1 187.60000000000002 C 120.1 187.60000000000002 120.6 187.40000000000003 120.6 187.20000000000002 C 120.6 186.9 120.6 186.50000000000003 120.39999999999999 186.4 C 119.49999999999999 186 118.6 185.6 117.69999999999999 185.20000000000002 L 117.6 185.20000000000002 Z M 78.8 159.8 C 80.7 158.70000000000002 80.8 158.3 79.7 157 C 79.4 158 79.10000000000001 158.9 78.8 159.8 Z" stroke-linecap="round" />
</g>
		<g transform="matrix(1 0 0 1 224.46 34.65)" id="Calque_1"  >
<path style="stroke: none; stroke-width: 0; stroke-dasharray: none; stroke-linecap: butt; stroke-dashoffset: 0; stroke-linejoin: miter; stroke-miterlimit: 4; fill: rgb(255,255,255); fill-rule: nonzero; opacity: 1;" vector-effect="non-scaling-stroke"  transform=" translate(-480.46, -171.5)" d="M 488.1 183.5 C 487.70000000000005 184 487.40000000000003 184.6 486.90000000000003 185 C 484.3 187.3 481.70000000000005 189.6 479.1 191.9 C 478 192.9 477 194.3 475.70000000000005 194.8 C 473.90000000000003 195.4 471.90000000000003 195.3 470.00000000000006 195.4 C 469.40000000000003 195.4 468.80000000000007 195 468.1000000000001 194.8 C 467.80000000000007 197.70000000000002 467.50000000000006 198 464.80000000000007 197.5 C 463.6000000000001 197.3 463.20000000000005 197.5 463.1000000000001 198.9 C 463.00000000000006 200.5 462.7000000000001 202.1 462.30000000000007 203.70000000000002 C 462.20000000000005 204.3 461.6000000000001 205.20000000000002 461.30000000000007 205.10000000000002 C 460.70000000000005 205.10000000000002 460.00000000000006 204.50000000000003 459.6000000000001 204.00000000000003 C 459.30000000000007 203.60000000000002 459.4000000000001 202.90000000000003 459.4000000000001 202.30000000000004 C 459.4000000000001 200.80000000000004 459.6000000000001 199.30000000000004 458.2000000000001 198.30000000000004 C 457.8000000000001 198.00000000000003 457.9000000000001 197.00000000000003 457.7000000000001 196.30000000000004 C 457.6000000000001 195.90000000000003 457.4000000000001 195.30000000000004 457.1000000000001 195.20000000000005 C 456.7000000000001 195.20000000000005 456.30000000000007 195.50000000000006 455.80000000000007 195.70000000000005 C 455.80000000000007 195.70000000000005 455.80000000000007 195.80000000000004 455.70000000000005 195.90000000000003 C 454.80000000000007 197.10000000000002 453.80000000000007 198.30000000000004 452.20000000000005 197.10000000000002 C 451.1 196.3 451.20000000000005 194.40000000000003 452.20000000000005 192.60000000000002 C 453.70000000000005 189.8 455.30000000000007 187.10000000000002 456.80000000000007 184.3 C 457.00000000000006 184 456.9000000000001 183.60000000000002 457.00000000000006 183.3 C 455.80000000000007 183.5 454.70000000000005 184 453.70000000000005 183.8 C 452.20000000000005 183.5 451.80000000000007 182.4 452.70000000000005 180.9 C 454.30000000000007 178.20000000000002 455.80000000000007 175.5 457.30000000000007 172.8 C 457.6000000000001 172.20000000000002 457.50000000000006 171.4 457.6000000000001 170.60000000000002 C 456.9000000000001 170.90000000000003 456.2000000000001 171.10000000000002 455.6000000000001 171.60000000000002 C 454.30000000000007 172.60000000000002 453.2000000000001 173.90000000000003 451.80000000000007 174.8 C 451.20000000000005 175.20000000000002 449.9000000000001 175.10000000000002 449.50000000000006 174.8 C 449.00000000000006 174.20000000000002 448.70000000000005 172.70000000000002 449.1000000000001 172.10000000000002 C 451.2000000000001 168.90000000000003 453.4000000000001 165.70000000000002 455.80000000000007 162.70000000000002 C 458.30000000000007 159.50000000000003 460.9000000000001 156.3 463.70000000000005 153.50000000000003 C 465.6 151.60000000000002 466.50000000000006 149.50000000000003 466.40000000000003 146.70000000000002 C 466.40000000000003 146.3 466.70000000000005 145.9 466.90000000000003 145.50000000000003 C 467.40000000000003 144.10000000000002 468.1 142.90000000000003 470.00000000000006 143.50000000000003 C 470.00000000000006 142.60000000000002 469.90000000000003 141.90000000000003 469.80000000000007 141.00000000000003 C 469.30000000000007 141.20000000000002 469.00000000000006 141.30000000000004 468.50000000000006 141.60000000000002 C 468.80000000000007 140.8 468.90000000000003 139.90000000000003 469.30000000000007 139.60000000000002 C 469.9000000000001 139.20000000000002 470.70000000000005 139.20000000000002 471.50000000000006 139.3 C 471.70000000000005 139.3 472.00000000000006 140.20000000000002 471.90000000000003 140.60000000000002 C 471.40000000000003 142.8 470.8 144.90000000000003 470.3 147.10000000000002 C 470.3 147.50000000000003 470.1 147.90000000000003 470.2 148.20000000000002 C 472.5 155.70000000000002 474.8 163.20000000000002 477.09999999999997 170.70000000000002 C 477.09999999999997 170.8 477.29999999999995 170.9 477.49999999999994 171.10000000000002 C 478.09999999999997 170.50000000000003 478.69999999999993 170.10000000000002 479.09999999999997 169.40000000000003 C 481.99999999999994 164.90000000000003 484.7 160.20000000000005 487.9 155.90000000000003 C 491.7 150.60000000000002 494.5 144.40000000000003 499.29999999999995 139.90000000000003 C 499.99999999999994 139.20000000000005 500.79999999999995 138.60000000000002 501.69999999999993 138.10000000000002 C 502.0999999999999 137.90000000000003 502.79999999999995 137.8 502.99999999999994 138.00000000000003 C 503.29999999999995 138.30000000000004 503.49999999999994 139.10000000000002 503.3999999999999 139.50000000000003 C 502.8999999999999 141.50000000000003 502.99999999999994 143.80000000000004 501.19999999999993 145.30000000000004 C 500.79999999999995 145.60000000000005 500.69999999999993 146.50000000000003 500.49999999999994 147.20000000000005 C 503.69999999999993 147.90000000000003 503.69999999999993 148.00000000000006 504.3999999999999 151.40000000000003 C 504.8999999999999 153.60000000000002 505.69999999999993 155.80000000000004 506.19999999999993 158.00000000000003 C 506.79999999999995 160.40000000000003 507.29999999999995 162.90000000000003 507.8999999999999 165.40000000000003 C 507.8999999999999 165.60000000000002 507.99999999999994 166.00000000000003 507.8999999999999 166.20000000000005 C 506.0999999999999 168.70000000000005 508.49999999999994 170.30000000000004 508.8999999999999 172.30000000000004 C 509.49999999999994 175.30000000000004 510.8999999999999 178.30000000000004 510.0999999999999 181.60000000000005 C 509.8999999999999 182.40000000000006 510.4999999999999 183.40000000000006 510.69999999999993 184.40000000000006 C 511.19999999999993 187.00000000000006 511.79999999999995 189.70000000000007 511.99999999999994 192.30000000000007 C 511.99999999999994 194.00000000000006 509.69999999999993 194.90000000000006 508.3999999999999 193.80000000000007 C 507.3999999999999 192.90000000000006 506.49999999999994 192.00000000000006 505.2999999999999 191.00000000000006 C 505.2999999999999 191.50000000000006 505.2999999999999 191.90000000000006 505.1999999999999 192.20000000000005 C 504.9999999999999 193.00000000000006 504.7999999999999 194.30000000000004 504.39999999999986 194.40000000000003 C 503.59999999999985 194.60000000000002 502.59999999999985 194.20000000000005 501.89999999999986 193.80000000000004 C 501.1999999999999 193.40000000000003 500.59999999999985 192.70000000000005 499.6999999999999 192.10000000000005 C 500.4999999999999 195.50000000000006 498.89999999999986 196.90000000000006 496.4999999999999 197.50000000000006 C 493.7999999999999 198.20000000000005 493.7999999999999 194.70000000000005 491.89999999999986 193.80000000000007 C 491.6999999999999 194.20000000000007 491.59999999999985 194.60000000000008 491.39999999999986 195.00000000000006 C 490.4999999999999 196.90000000000006 489.59999999999985 198.80000000000007 488.4999999999999 200.60000000000005 C 488.2999999999999 200.90000000000006 487.2999999999999 201.10000000000005 486.89999999999986 200.80000000000004 C 486.39999999999986 200.50000000000003 485.9999999999999 199.80000000000004 485.89999999999986 199.20000000000005 C 485.89999999999986 198.60000000000005 486.09999999999985 198.00000000000006 486.39999999999986 197.40000000000003 C 487.29999999999984 195.10000000000002 488.09999999999985 192.80000000000004 489.09999999999985 190.60000000000002 C 490.1999999999999 188.20000000000002 489.89999999999986 185.8 489.49999999999983 183.20000000000002 C 489.09999999999985 183.4 488.6999999999998 183.50000000000003 488.29999999999984 183.70000000000002 C 488.49999999999983 182.8 488.6999999999998 181.9 488.99999999999983 181.10000000000002 C 489.1999999999998 180.50000000000003 489.6999999999998 180.00000000000003 490.09999999999985 179.50000000000003 C 489.89999999999986 179.40000000000003 489.79999999999984 179.20000000000002 489.59999999999985 179.10000000000002 C 488.49999999999983 180.40000000000003 487.29999999999984 181.8 486.1999999999999 183.10000000000002 C 486.1999999999999 183.3 486.39999999999986 183.40000000000003 486.4999999999999 183.60000000000002 L 488.39999999999986 183.60000000000002 L 488.09999999999985 183.60000000000002 Z M 474.5 188.2 L 475 188.2 C 476.3 184.79999999999998 479.8 183 480.8 179.29999999999998 C 480 179.39999999999998 479.40000000000003 179.7 479 180.2 C 477.4 182.1 475.6 182 474.5 179.79999999999998 C 473.1 176.79999999999998 472 173.7 470.8 170.6 C 470.6 170.1 470.1 169.7 469.7 169.2 C 468.8 171.29999999999998 469.5 175.89999999999998 470.7 177.29999999999998 C 471.3 177.99999999999997 471.9 178.89999999999998 472.09999999999997 179.79999999999998 C 472.59999999999997 181.6 472.79999999999995 183.6 473.29999999999995 185.39999999999998 C 473.49999999999994 186.29999999999998 474.09999999999997 187.2 474.49999999999994 187.99999999999997 L 474.49999999999994 188.19999999999996 Z M 506.4 181.2 L 507 180.79999999999998 C 504.2 175.89999999999998 501.4 170.99999999999997 498.5 165.99999999999997 C 497.4 168.79999999999998 497.4 168.69999999999996 499 170.79999999999998 C 499.7 171.7 500.3 172.6 500.8 173.6 C 502 176.29999999999998 503 179.2 504.3 181.79999999999998 C 505.3 183.79999999999998 506.6 185.6 507.8 187.49999999999997 C 508.1 187.29999999999998 508.40000000000003 187.19999999999996 508.7 186.99999999999997 C 508.5 186.19999999999996 508.4 185.39999999999998 508 184.79999999999998 C 507.1 183.39999999999998 506.1 182.1 505.2 180.79999999999998 C 505.3 180.7 505.5 180.6 505.59999999999997 180.49999999999997 C 505.79999999999995 180.69999999999996 506.09999999999997 180.99999999999997 506.29999999999995 181.19999999999996 L 506.4 181.19999999999996 Z M 492.2 166 C 494 164.1 495.7 162.2 497.5 160.3 C 496.7 159.60000000000002 495.8 159.70000000000002 495 160.70000000000002 C 493.8 162.3 491.6 163.4 492.2 166.00000000000003 Z M 499.2 148.9 C 498.2 150.3 497.4 151.3 496.7 152.3 C 497.7 153 498.4 153.5 499.09999999999997 154 C 499.29999999999995 154 499.49999999999994 154 499.7 153.9 C 499.59999999999997 152.4 499.4 150.9 499.3 148.9 L 499.2 148.9 Z M 464.5 178.5 C 464.3 179.3 464 179.8 464.1 180.2 C 464.20000000000005 180.89999999999998 464.40000000000003 181.89999999999998 464.90000000000003 182.1 C 465.40000000000003 182.3 466.20000000000005 181.79999999999998 466.8 181.6 C 466.5 181 466.2 180.4 465.8 179.79999999999998 C 465.5 179.39999999999998 465.1 178.99999999999997 464.5 178.49999999999997 L 464.5 178.49999999999997 Z M 499 156.2 L 498.5 156.2 C 498.9 158.6 499.3 161 499.7 163.5 C 500.3 160.9 500.09999999999997 158.4 498.9 156.1 L 498.9 156.1 Z M 469.5 159.9 C 469.3 159.70000000000002 469.2 159.5 469 159.3 C 467.6 160.60000000000002 466.2 161.9 464.6 163.3 C 467.6 163.9 468.1 161.4 469.40000000000003 159.9 L 469.50000000000006 159.9 Z M 489 166.6 C 486.9 167.7 486.8 168.7 488.6 171 C 488.70000000000005 169.4 488.8 168.1 489 166.6 Z M 477 172.9 C 477.6 174.4 477.9 175.3 478.3 176.20000000000002 C 478.5 176.20000000000002 478.6 176.20000000000002 478.8 176.3 C 479.1 175.60000000000002 479.5 175 479.8 174.20000000000002 L 477 172.8 L 477 172.8 Z M 461.3 192.1 C 461.5 190.79999999999998 461.7 189.6 462 187.9 C 460 189.3 459.8 190.3 461.3 192.1 Z M 464.2 171.5 C 463.5 173.1 462.9 174.4 462.4 175.6 C 464.29999999999995 176.1 464.59999999999997 175.6 464.2 171.5 Z" stroke-linecap="round" />
</g>
		<g transform="matrix(1 0 0 1 156.05 102.57)" id="Calque_1"  >
<path style="stroke: none; stroke-width: 0; stroke-dasharray: none; stroke-linecap: butt; stroke-dashoffset: 0; stroke-linejoin: miter; stroke-miterlimit: 4; fill: rgb(255,255,255); fill-rule: nonzero; opacity: 1;" vector-effect="non-scaling-stroke"  transform=" translate(-412.05, -239.42)" d="M 501 209.6 C 501.2 210.2 501.3 210.5 501.4 210.79999999999998 C 502.2 212.7 501.7 213.7 499.7 213.99999999999997 C 496.09999999999997 214.49999999999997 492.4 214.99999999999997 488.8 215.59999999999997 C 480.90000000000003 216.99999999999997 473.1 218.59999999999997 465.2 219.99999999999997 C 462.3 220.49999999999997 459.2 220.69999999999996 456.3 221.29999999999998 C 453 222.1 449.7 223.29999999999998 446.40000000000003 224.1 C 442.6 225.1 438.70000000000005 225.9 434.8 226.9 C 433 227.3 431.3 228.20000000000002 429.6 228.3 C 427.40000000000003 228.3 425.5 229.4 423.40000000000003 229.9 C 421.20000000000005 230.4 419.00000000000006 230.9 416.90000000000003 231.6 C 411.40000000000003 233.5 406.00000000000006 235.6 400.50000000000006 237.7 C 398.00000000000006 238.7 395.40000000000003 239.7 392.90000000000003 240.6 C 391.50000000000006 241.1 389.90000000000003 240.9 388.50000000000006 241.5 C 382.1000000000001 243.9 375.70000000000005 246.3 369.30000000000007 248.9 C 364.80000000000007 250.70000000000002 360.4000000000001 252.70000000000002 356.00000000000006 254.8 C 353.30000000000007 256.1 350.70000000000005 257.90000000000003 348.00000000000006 259.3 C 345.1000000000001 260.8 342.00000000000006 261.90000000000003 339.1000000000001 263.5 C 336.4000000000001 265 333.9000000000001 266.9 331.30000000000007 268.5 C 329.1000000000001 269.8 326.70000000000005 270.7 324.4000000000001 271.7 C 324.1000000000001 271.8 323.4000000000001 271.2 323.0000000000001 270.8 C 322.60000000000014 270.3 322.5000000000001 269.7 322.3000000000001 269.1 C 320.60000000000014 270.70000000000005 319.0000000000001 272.20000000000005 317.3000000000001 273.5 C 317.0000000000001 273.8 315.90000000000015 273.7 315.8000000000001 273.5 C 315.5000000000001 272.8 315.2000000000001 271.8 315.5000000000001 271.3 C 316.2000000000001 270 317.10000000000014 268.7 318.2000000000001 267.7 C 321.0000000000001 265.4 324.2000000000001 263.5 326.8000000000001 261 C 330.40000000000015 257.7 334.8000000000001 256.4 338.8000000000001 254 C 344.2000000000001 250.8 349.40000000000015 247.2 355.0000000000001 244.5 C 360.3000000000001 241.9 365.5000000000001 239.1 371.3000000000001 237.8 C 375.5000000000001 236.9 379.60000000000014 235.60000000000002 383.7000000000001 234.3 C 386.9000000000001 233.3 390.0000000000001 231.70000000000002 393.2000000000001 230.8 C 399.8000000000001 229 406.0000000000001 226.10000000000002 412.4000000000001 223.60000000000002 C 416.4000000000001 222.00000000000003 420.6000000000001 221.10000000000002 424.6000000000001 219.8 C 426.6000000000001 219.10000000000002 428.50000000000006 218.10000000000002 430.50000000000006 217.5 C 435.90000000000003 216 441.30000000000007 214.4 446.70000000000005 213.2 C 451.90000000000003 212 457.1 211 462.30000000000007 210.2 C 467.5000000000001 209.39999999999998 472.70000000000005 208.79999999999998 477.80000000000007 208.2 C 482.30000000000007 207.7 486.9000000000001 207.29999999999998 491.4000000000001 206.79999999999998 C 495.2000000000001 206.39999999999998 499.0000000000001 205.79999999999998 502.80000000000007 205.29999999999998 C 504.1000000000001 205.1 505.4000000000001 205.1 506.80000000000007 205.29999999999998 C 508.00000000000006 205.39999999999998 508.9000000000001 206.2 508.70000000000005 207.6 C 508.50000000000006 209 507.70000000000005 209.5 506.40000000000003 209.4 C 505.6 209.3 504.90000000000003 209 504.00000000000006 210 C 503.50000000000006 210.5 502.1000000000001 210 500.80000000000007 210 L 501.00000000000006 209.6 Z M 409.6 228.7 C 425.20000000000005 224.6 440.70000000000005 220.2 455.90000000000003 214.7 C 439.8 216.89999999999998 424.8 223 409.6 228.7 Z M 384.6 237.5 C 377.70000000000005 239.3 370.6 240.8 364.1 244.2 C 371.40000000000003 243.5 377.70000000000005 239.5 384.6 237.5 Z M 486.4 209.4 C 487.7 211.6 488.5 211.8 491 210.6 C 489.5 210.2 488.1 209.9 486.4 209.4 Z" stroke-linecap="round" />
</g>
		<g transform="matrix(1 0 0 1 179.97 40.75)" id="Calque_1"  >
<path style="stroke: none; stroke-width: 0; stroke-dasharray: none; stroke-linecap: butt; stroke-dashoffset: 0; stroke-linejoin: miter; stroke-miterlimit: 4; fill: rgb(255,255,255); fill-rule: nonzero; opacity: 1;" vector-effect="non-scaling-stroke"  transform=" translate(-435.97, -177.6)" d="M 427.8 199.5 C 425.7 200.4 424.8 199 424.40000000000003 196.6 C 423.90000000000003 197 423.6 197.6 423.20000000000005 197.6 C 422.30000000000007 197.6 421.30000000000007 197.6 420.50000000000006 197.2 C 420.40000000000003 197.2 420.40000000000003 195.89999999999998 420.6000000000001 195.29999999999998 C 420.9000000000001 194.49999999999997 421.4000000000001 193.7 421.9000000000001 192.99999999999997 C 423.1000000000001 191.29999999999998 423.9000000000001 189.49999999999997 423.80000000000007 187.29999999999998 C 423.80000000000007 186.39999999999998 424.50000000000006 185.49999999999997 424.9000000000001 184.6 C 429.7000000000001 174.2 434.5000000000001 163.79999999999998 439.4000000000001 153.5 C 439.9000000000001 152.4 441.5000000000001 151.6 442.7000000000001 151.3 C 443.9000000000001 150.9 444.0000000000001 152.3 444.1000000000001 153.3 C 444.30000000000007 155.70000000000002 444.30000000000007 158.10000000000002 444.7000000000001 160.4 C 445.2000000000001 163.6 446.1000000000001 166.8 446.6000000000001 170 C 446.80000000000007 171.2 446.2000000000001 172.5 446.00000000000006 173.8 C 445.90000000000003 174.5 445.6000000000001 175.4 445.90000000000003 175.9 C 447.3 178.8 449.00000000000006 181.4 450.3 184.4 C 451 186 451.3 187.9 451.5 189.8 C 451.5 190.60000000000002 450.8 192 450.3 192.10000000000002 C 449.5 192.20000000000002 448.2 191.70000000000002 447.7 191.00000000000003 C 446.4 189.10000000000002 445.4 187.00000000000003 444.2 184.90000000000003 C 444 184.60000000000002 443.8 184.30000000000004 443.5 183.70000000000005 C 442.8 186.90000000000003 443.9 189.20000000000005 445.4 191.40000000000003 C 445.7 191.90000000000003 446.09999999999997 192.30000000000004 446.2 192.90000000000003 C 446.5 194.30000000000004 447.3 195.00000000000003 448.59999999999997 195.10000000000002 C 449.09999999999997 195.10000000000002 449.59999999999997 195.40000000000003 450.09999999999997 195.60000000000002 C 448.99999999999994 197.3 447.99999999999994 198.8 446.99999999999994 200.20000000000002 C 446.09999999999997 201.4 444.29999999999995 201.00000000000003 443.3999999999999 199.4 C 442.8999999999999 198.4 442.3999999999999 197.4 441.7999999999999 196.4 C 441.6999999999999 196.20000000000002 441.3999999999999 196 440.8999999999999 195.6 C 440.49999999999994 197.9 439.99999999999994 200 439.7999999999999 202.1 C 439.5999999999999 203.4 439.0999999999999 204.2 437.9999999999999 203.9 C 437.1999999999999 203.70000000000002 436.1999999999999 203.1 435.89999999999986 202.4 C 434.9999999999999 200.3 434.6999999999999 200.20000000000002 433.29999999999984 201.9 C 432.59999999999985 202.70000000000002 429.39999999999986 203.5 428.89999999999986 202.70000000000002 C 428.39999999999986 201.90000000000003 428.39999999999986 200.8 428.09999999999985 199.60000000000002 L 427.79999999999984 199.60000000000002 Z" stroke-linecap="round" />
</g>
		<g transform="matrix(1 0 0 1 81.7 39.25)" id="Calque_1"  >
<rect style="stroke: none; stroke-width: 0; stroke-dasharray: none; stroke-linecap: butt; stroke-dashoffset: 0; stroke-linejoin: miter; stroke-miterlimit: 4; fill: rgb(255,255,255); fill-rule: nonzero; opacity: 1;" vector-effect="non-scaling-stroke"  x="-4.7" y="-4.7" rx="0" ry="0" width="9.4" height="9.4" />
</g>
		<g transform="matrix(1 0 0 1 95.1 39.25)" id="Calque_1"  >
<rect style="stroke: none; stroke-width: 0; stroke-dasharray: none; stroke-linecap: butt; stroke-dashoffset: 0; stroke-linejoin: miter; stroke-miterlimit: 4; fill: rgb(255,255,255); fill-rule: nonzero; opacity: 1;" vector-effect="non-scaling-stroke"  x="-4.7" y="-4.7" rx="0" ry="0" width="9.4" height="9.4" />
</g>
		<g transform="matrix(1 0 0 1 95.1 52.65)" id="Calque_1"  >
<rect style="stroke: none; stroke-width: 0; stroke-dasharray: none; stroke-linecap: butt; stroke-dashoffset: 0; stroke-linejoin: miter; stroke-miterlimit: 4; fill: rgb(255,255,255); fill-rule: nonzero; opacity: 1;" vector-effect="non-scaling-stroke"  x="-4.7" y="-4.7" rx="0" ry="0" width="9.4" height="9.4" />
</g>
		<g transform="matrix(1 0 0 1 81.7 52.65)" id="Calque_1"  >
<rect style="stroke: none; stroke-width: 0; stroke-dasharray: none; stroke-linecap: butt; stroke-dashoffset: 0; stroke-linejoin: miter; stroke-miterlimit: 4; fill: rgb(255,255,255); fill-rule: nonzero; opacity: 1;" vector-effect="non-scaling-stroke"  x="-4.7" y="-4.7" rx="0" ry="0" width="9.4" height="9.4" />
</g>
</g>
</g>
</svg>